<svg width="168" height="155" viewBox="0 0 168 155" fill="none" xmlns="http://www.w3.org/2000/svg">
<path d="M126.926 64.3348L157.331 94.7404L104.701 147.37C103.308 148.763 101.046 148.763 99.6527 147.37L74.3029 122.021C72.9099 120.628 72.9099 118.365 74.3029 116.972L126.933 64.3419L126.926 64.3348Z" fill="#FFE600"/>
<path d="M127.019 64.4398L162.659 55.2698C165.319 54.5898 167.729 57.0298 166.999 59.6798L157.329 94.7398" fill="white"/>
<mask id="mask0_1370_9888" style="mask-type:luminance" maskUnits="userSpaceOnUse" x="127" y="55" width="41" height="40">
<path d="M127.019 64.4398L162.659 55.2698C165.319 54.5898 167.729 57.0298 166.999 59.6798L157.329 94.7398" fill="white"/>
</mask>
<g mask="url(#mask0_1370_9888)">
<path d="M149.869 53.0098L163.869 44.0098L172.869 59.0098L167.129 67.0098L154.499 54.3798" fill="#00C186"/>
</g>
<path d="M74.5483 133.63C74.5483 133.63 71.3083 151.04 77.7883 153.47C84.2683 155.9 103.738 155.09 110.228 153.47C116.718 151.85 119.148 142.01 110.228 138.41L106.168 137.25V134.01L74.5383 133.63H74.5483Z" fill="white"/>
<path d="M63.1896 133.63C63.1896 133.63 66.4296 151.04 59.9496 153.47C53.4696 155.9 33.9996 155.09 27.5096 153.47C21.0196 151.85 18.5896 142.01 27.5096 138.41L31.5696 137.25V134.01L63.1996 133.63H63.1896Z" fill="white"/>
<path d="M124.549 8.00977H12.1891C7.59413 8.00977 3.86914 11.7348 3.86914 16.3298V125.69C3.86914 130.285 7.59413 134.01 12.1891 134.01H124.549C129.144 134.01 132.869 130.285 132.869 125.69V16.3298C132.869 11.7348 129.144 8.00977 124.549 8.00977Z" fill="#00C186"/>
<path d="M20.9091 24.0699C18.9791 24.0699 17.6491 23.6199 17.6091 23.5999C17.0891 23.4099 16.8191 22.8399 16.9991 22.3199C17.1891 21.7999 17.7491 21.5299 18.2691 21.7099C18.4991 21.7899 22.5791 23.1499 26.5291 20.2599C25.8791 19.5999 25.2491 18.8599 24.6491 18.0199C19.0691 10.2899 21.0091 5.26995 22.1091 3.47995C23.6191 1.01995 26.2991 -0.320053 28.9591 0.079947C30.9091 0.369947 32.6691 1.71995 33.6791 3.68995C34.8391 5.95995 35.5291 10.0099 32.2091 16.4199C31.3991 17.9799 30.5091 19.2299 29.5791 20.2299C30.9491 21.1999 32.4291 21.7699 33.9991 21.9299C39.2791 22.4799 43.9691 18.2399 44.0191 18.1999C44.4291 17.8299 45.0591 17.8599 45.4291 18.2599C45.7991 18.6699 45.7791 19.2999 45.3691 19.6699C45.1491 19.8699 39.9791 24.5499 33.8091 23.9199C31.7491 23.7099 29.8291 22.9399 28.0791 21.6099C25.5691 23.5799 22.9191 24.0699 20.9191 24.0699H20.9091ZM28.0391 2.00995C26.3891 2.00995 24.7891 2.94995 23.8291 4.52995C22.9391 5.98995 21.4091 10.0999 26.2891 16.8599C26.8491 17.6399 27.4391 18.3299 28.0491 18.9399C28.8891 18.0499 29.6991 16.9199 30.4391 15.4999C32.7291 11.0899 33.2491 7.21995 31.9091 4.59995C31.0691 2.95995 29.6891 2.20995 28.6791 2.05995C28.4691 2.02995 28.2591 2.00995 28.0491 2.00995H28.0391Z" fill="white"/>
<path d="M35.9491 24.0699C34.0191 24.0699 32.6891 23.6199 32.6491 23.5999C32.1291 23.4099 31.8591 22.8399 32.0391 22.3199C32.2291 21.7999 32.7991 21.5299 33.3191 21.7099C33.5591 21.7899 37.6391 23.1399 41.5791 20.2599C40.9291 19.5999 40.2991 18.8599 39.6991 18.0199C34.1191 10.2899 36.0591 5.26992 37.1591 3.47992C38.6591 1.00992 41.3391 -0.330079 43.9991 0.069921C45.9491 0.359921 47.7091 1.70992 48.7191 3.67992C49.8791 5.94992 50.5691 9.99992 47.2491 16.4099C46.4391 17.9699 45.5491 19.2199 44.6191 20.2199C45.9891 21.1899 47.4691 21.7599 49.0391 21.9199C54.3091 22.4699 59.0091 18.2299 59.0591 18.1899C59.4691 17.8199 60.0991 17.8499 60.4691 18.2499C60.8391 18.6599 60.8191 19.2899 60.4091 19.6599C60.1891 19.8599 55.0291 24.5499 48.8491 23.9099C46.7891 23.6999 44.8691 22.9299 43.1191 21.5999C40.6091 23.5699 37.9591 24.0599 35.9591 24.0599L35.9491 24.0699ZM43.0691 2.00992C41.4191 2.00992 39.8191 2.94992 38.8591 4.52992C37.9691 5.98992 36.4391 10.0999 41.3191 16.8599C41.8791 17.6399 42.4691 18.3299 43.0791 18.9399C43.9191 18.0499 44.7291 16.9199 45.4691 15.4999C47.7591 11.0899 48.2791 7.21992 46.9391 4.59992C46.0991 2.95992 44.7191 2.20992 43.7091 2.05992C43.4991 2.02992 43.2891 2.00992 43.0791 2.00992H43.0691Z" fill="white"/>
<path d="M50.989 24.0699C49.059 24.0699 47.729 23.6199 47.689 23.5999C47.169 23.4099 46.899 22.8399 47.079 22.3199C47.269 21.7999 47.829 21.5299 48.349 21.7099C48.579 21.7899 52.659 23.1499 56.609 20.2599C55.959 19.5999 55.329 18.8599 54.729 18.0199C49.149 10.2899 51.089 5.26992 52.189 3.47992C53.689 1.00992 56.379 -0.330079 59.029 0.069921C60.979 0.359921 62.739 1.70992 63.749 3.67992C64.909 5.94992 65.599 9.99992 62.279 16.4099C61.469 17.9699 60.579 19.2199 59.649 20.2199C61.029 21.1899 62.509 21.7699 64.079 21.9299C69.369 22.4699 74.039 18.2399 74.089 18.1999C74.499 17.8299 75.129 17.8499 75.499 18.2599C75.869 18.6699 75.849 19.2999 75.439 19.6699C75.219 19.8699 70.049 24.5599 63.879 23.9199C61.819 23.7099 59.899 22.9399 58.149 21.6099C55.639 23.5799 52.989 24.0699 50.989 24.0699ZM58.109 2.00992C56.459 2.00992 54.859 2.94992 53.899 4.52992C53.009 5.98992 51.479 10.0999 56.359 16.8599C56.919 17.6399 57.509 18.3299 58.119 18.9399C58.959 18.0499 59.769 16.9199 60.509 15.4999C62.799 11.0899 63.319 7.21992 61.979 4.59992C61.139 2.95992 59.759 2.20992 58.749 2.05992C58.539 2.02992 58.329 2.00992 58.119 2.00992H58.109Z" fill="white"/>
<path d="M66.0291 24.0699C64.0991 24.0699 62.7691 23.6199 62.7291 23.5999C62.2091 23.4099 61.9391 22.8399 62.1191 22.3199C62.3091 21.7999 62.8691 21.5299 63.3891 21.7099C63.6191 21.7899 67.6991 23.1499 71.6491 20.2599C70.9991 19.5999 70.3691 18.8599 69.7691 18.0199C64.1891 10.2899 66.1291 5.26992 67.2291 3.47992C68.7291 1.00992 71.4191 -0.330079 74.0691 0.069921C76.0191 0.359921 77.7791 1.70992 78.7891 3.67992C79.9491 5.94992 80.6391 9.99992 77.3191 16.4099C76.5091 17.9699 75.6191 19.2199 74.6891 20.2199C76.0591 21.1899 77.5391 21.7599 79.1091 21.9199C84.3791 22.4699 89.0791 18.2299 89.1291 18.1899C89.5391 17.8199 90.1691 17.8499 90.5391 18.2499C90.9091 18.6599 90.8891 19.2899 90.4791 19.6599C90.2591 19.8599 85.0891 24.5399 78.9191 23.9099C76.8591 23.6999 74.9391 22.9299 73.1891 21.5999C70.6791 23.5699 68.0291 24.0599 66.0291 24.0599V24.0699ZM73.1491 2.00992C71.4991 2.00992 69.8991 2.94992 68.9391 4.52992C68.0491 5.98992 66.5191 10.0999 71.3991 16.8599C71.9591 17.6399 72.5491 18.3299 73.1591 18.9399C73.9991 18.0499 74.8091 16.9199 75.5491 15.4999C77.8391 11.0899 78.3591 7.21992 77.0191 4.59992C76.1791 2.95992 74.7991 2.20992 73.7891 2.05992C73.5791 2.02992 73.3691 2.00992 73.1591 2.00992H73.1491Z" fill="white"/>
<path d="M81.0591 24.0699C79.1291 24.0699 77.7991 23.6199 77.7591 23.5999C77.2391 23.4099 76.9691 22.8399 77.1491 22.3199C77.3391 21.7999 77.9091 21.5299 78.4191 21.7099C78.6491 21.7899 82.7291 23.1499 86.6791 20.2599C86.0291 19.5999 85.3991 18.8599 84.7991 18.0199C79.2191 10.2899 81.1591 5.26992 82.2591 3.47992C83.7591 1.00992 86.4391 -0.330079 89.0991 0.069921C91.0491 0.359921 92.8091 1.70992 93.8191 3.67992C94.9791 5.94992 95.6691 9.99992 92.3491 16.4099C91.5391 17.9699 90.6491 19.2199 89.7191 20.2199C91.0891 21.1899 92.5691 21.7599 94.1391 21.9199C99.4091 22.4699 104.109 18.2299 104.159 18.1899C104.569 17.8199 105.199 17.8499 105.569 18.2499C105.939 18.6599 105.919 19.2899 105.509 19.6599C105.289 19.8599 100.119 24.5399 93.9491 23.9099C91.8891 23.6999 89.9691 22.9299 88.2191 21.5999C85.7091 23.5699 83.0591 24.0599 81.0591 24.0599V24.0699ZM88.1791 2.00992C86.5291 2.00992 84.9291 2.94992 83.9691 4.52992C83.0791 5.98992 81.5491 10.0999 86.4291 16.8599C86.9891 17.6399 87.5791 18.3299 88.1891 18.9399C89.0291 18.0499 89.8391 16.9199 90.5791 15.4999C92.8691 11.0899 93.3891 7.21992 92.0491 4.59992C91.2091 2.95992 89.8291 2.20992 88.8191 2.05992C88.6091 2.02992 88.3991 2.00992 88.1891 2.00992H88.1791Z" fill="white"/>
<path d="M96.099 24.0699C94.169 24.0699 92.839 23.6199 92.799 23.5999C92.279 23.4099 92.009 22.8399 92.189 22.3199C92.379 21.7999 92.949 21.5299 93.459 21.7099C93.689 21.7899 97.769 23.1499 101.719 20.2599C101.069 19.5999 100.439 18.8599 99.839 18.0199C94.259 10.2899 96.199 5.26992 97.299 3.47992C98.799 1.00992 101.479 -0.330079 104.139 0.069921C106.089 0.359921 107.849 1.70992 108.859 3.67992C110.019 5.94992 110.709 9.99992 107.389 16.4099C106.579 17.9699 105.689 19.2199 104.759 20.2199C106.129 21.1899 107.609 21.7599 109.179 21.9199C114.449 22.4699 119.149 18.2299 119.199 18.1899C119.609 17.8199 120.239 17.8499 120.609 18.2499C120.979 18.6599 120.959 19.2899 120.549 19.6599C120.329 19.8599 115.159 24.5399 108.989 23.9099C106.929 23.6999 105.009 22.9299 103.259 21.5999C100.749 23.5699 98.099 24.0599 96.099 24.0599V24.0699ZM103.219 2.00992C101.569 2.00992 99.969 2.94992 99.009 4.52992C98.119 5.98992 96.589 10.0999 101.469 16.8599C102.029 17.6399 102.619 18.3299 103.229 18.9399C104.069 18.0499 104.879 16.9199 105.619 15.4999C107.909 11.0899 108.429 7.21992 107.089 4.59992C106.249 2.95992 104.869 2.20992 103.859 2.05992C103.649 2.02992 103.439 2.00992 103.229 2.00992H103.219Z" fill="white"/>
<path d="M68.3683 74.0098C64.9783 74.0098 61.5883 72.7198 59.0083 70.1398C58.0083 69.1398 58.0083 67.5298 59.0083 66.5298C60.0083 65.5298 61.6183 65.5298 62.6183 66.5298C65.7883 69.6998 70.9383 69.6998 74.1083 66.5298C75.1083 65.5298 76.7183 65.5298 77.7183 66.5298C78.7183 67.5298 78.7183 69.1398 77.7183 70.1398C75.1383 72.7198 71.7483 74.0098 68.3583 74.0098H68.3683Z" fill="#262626"/>
<path d="M53.6784 63.2298C56.5005 63.2298 58.7884 60.9419 58.7884 58.1198C58.7884 55.2976 56.5005 53.0098 53.6784 53.0098C50.8562 53.0098 48.5684 55.2976 48.5684 58.1198C48.5684 60.9419 50.8562 63.2298 53.6784 63.2298Z" fill="#262626"/>
<path d="M83.0584 63.2298C85.8805 63.2298 88.1684 60.9419 88.1684 58.1198C88.1684 55.2976 85.8805 53.0098 83.0584 53.0098C80.2362 53.0098 77.9484 55.2976 77.9484 58.1198C77.9484 60.9419 80.2362 63.2298 83.0584 63.2298Z" fill="#262626"/>
<path d="M68.6584 64.8698C70.8289 64.8698 72.5884 63.1102 72.5884 60.9398C72.5884 58.7693 70.8289 57.0098 68.6584 57.0098C66.4879 57.0098 64.7284 58.7693 64.7284 60.9398C64.7284 63.1102 66.4879 64.8698 68.6584 64.8698Z" fill="#FFE600"/>
<path d="M101.12 111.11C73.7097 111.11 52.0197 102.92 37.0797 94.6298C14.0897 81.8698 1.99969 66.4998 1.49969 65.8498C0.479687 64.5398 0.719687 62.6598 2.02969 61.6398C3.33969 60.6198 5.21969 60.8598 6.23969 62.1698C6.35969 62.3198 18.2297 77.3598 40.2197 89.5098C60.4297 100.67 93.6297 111.62 137.03 100.39C138.64 99.9698 140.27 100.94 140.69 102.54C141.11 104.14 140.14 105.78 138.54 106.2C125.12 109.67 112.63 111.11 101.14 111.11H101.12Z" fill="#FFE600"/>
<path d="M35.1091 88.7297C35.1091 88.7297 41.2891 96.6697 50.1091 96.6697C58.9291 96.6697 66.8691 101.96 66.8691 112.55C66.8691 123.14 57.1591 131.96 43.9291 127.55C30.6891 123.14 21.8691 104.61 21.8691 95.7897C21.8691 86.9697 29.8091 84.3197 35.1091 88.7297Z" fill="white"/>
<path d="M106.639 88.7297C106.639 88.7297 100.459 96.6697 91.6389 96.6697C82.8189 96.6697 74.8789 101.96 74.8789 112.55C74.8789 123.14 84.5889 131.96 97.8189 127.55C111.059 123.14 119.879 104.61 119.879 95.7897C119.879 86.9697 111.939 84.3197 106.639 88.7297Z" fill="white"/>
</svg>
