<svg width="18" height="18" viewBox="0 0 18 18" fill="none" xmlns="http://www.w3.org/2000/svg">
<g clip-path="url(#clip0_1564_8337)">
<path d="M9 1C7.26387 1 5.59886 1.67165 4.37123 2.86719C3.1436 4.06274 2.45393 5.68424 2.45393 7.375V10.7764L1.05162 14.1962C1.0077 14.3036 0.991435 14.4199 1.00425 14.5348C1.01707 14.6497 1.05858 14.7599 1.12515 14.8556C1.19172 14.9513 1.28134 15.0297 1.38618 15.0839C1.49101 15.1381 1.60788 15.1665 1.72659 15.1667H6.09064C6.09064 16.7363 7.38821 18 9 18C10.6118 18 11.9094 16.7363 11.9094 15.1667H16.2734C16.3921 15.1665 16.509 15.1381 16.6138 15.0839C16.7187 15.0297 16.8083 14.9513 16.8749 14.8556C16.9414 14.7599 16.9829 14.6497 16.9957 14.5348C17.0086 14.4199 16.9923 14.3036 16.9484 14.1962L15.5461 10.775V7.375C15.5461 5.68424 14.8564 4.06274 13.6288 2.86719C12.4011 1.67165 10.7361 1 9 1ZM10.4547 15.1667C10.4547 15.9543 9.8088 16.5833 9 16.5833C8.1912 16.5833 7.54532 15.9543 7.54532 15.1667H10.4547ZM3.90861 7.375C3.90861 6.05997 4.44503 4.7988 5.39985 3.86893C6.35467 2.93906 7.64968 2.41667 9 2.41667C10.3503 2.41667 11.6453 2.93906 12.6002 3.86893C13.555 4.7988 14.0914 6.05997 14.0914 7.375V10.9138C14.0916 11.0036 14.1094 11.0926 14.1438 11.1759L15.1999 13.75H2.80015L3.85625 11.1759C3.8906 11.0926 3.90837 11.0036 3.90861 10.9138V7.375Z" fill="#FEFEFE"/>
<path d="M15.0664 1.3501C15.0664 1.3501 15.7503 1.5062 16.1217 1.87764C16.4931 2.24907 16.6492 2.93286 16.6492 2.93286" stroke="white" stroke-width="1.5" stroke-linecap="round" stroke-linejoin="round"/>
<path d="M2.93237 1.3501C2.93237 1.3501 2.24854 1.5062 1.87711 1.87764C1.50567 2.24907 1.34961 2.93286 1.34961 2.93286" stroke="white" stroke-width="1.5" stroke-linecap="round" stroke-linejoin="round"/>
</g>
<defs>
<clipPath id="clip0_1564_8337">
<rect width="18" height="18" fill="white"/>
</clipPath>
</defs>
</svg>
