<svg width="130" height="123" viewBox="0 0 130 123" fill="none" xmlns="http://www.w3.org/2000/svg">
<path d="M99.2757 38.7089C99.2757 38.7089 109.057 38.7089 108.168 25.1651C107.216 10.6372 81.4913 11.6213 81.4913 11.6213C78.3879 0.58768 67.8239 -0.0263043 65.2007 0.000783225C65.2007 0.000783225 65.1919 0.000783225 65.183 0.000783225C62.5509 -0.0263043 51.9958 0.58768 48.8835 11.6213C48.8835 11.6213 23.1584 10.6372 22.2069 25.1651C21.3177 38.7089 31.0991 38.7089 31.0991 38.7089C31.0991 38.7089 12.4255 45.9323 16.8716 72.1169C21.3533 98.5002 47.523 103.412 64.4894 103.638C64.5249 103.638 64.5605 103.647 64.605 103.647C64.8006 103.647 64.9962 103.647 65.1919 103.647C65.3875 103.647 65.592 103.647 65.7787 103.647C65.8143 103.647 65.8499 103.638 65.8943 103.638C82.8607 103.412 109.03 98.5002 113.512 72.1169C117.958 45.9323 99.2846 38.7089 99.2846 38.7089H99.2757Z" fill="#00D282"/>
<path d="M104.069 85.4532C104.069 85.4532 107.99 91.4305 106.034 97.4078C104.077 103.385 114.677 110.049 122.716 105.381C129.589 101.399 131.172 91.4305 127.624 82.4555C124.076 73.4895 109.955 68.5054 109.955 68.5054L104.069 85.4441V85.4532Z" fill="#00D282"/>
<path d="M26.3062 85.4532C26.3062 85.4532 22.3848 91.4305 24.3411 97.4078C26.2973 103.385 15.6978 110.049 7.65927 105.381C0.785593 101.399 -0.79722 91.4305 2.75077 82.4555C6.29876 73.4895 20.4196 68.5054 20.4196 68.5054L26.3062 85.4441V85.4532Z" fill="#00D282"/>
<path d="M37.3592 96.4053L35.4562 102.292C35.4562 102.292 28.8137 101.398 26.9108 109.145C25.0079 116.892 31.677 122.698 46.9272 122.698C62.1773 122.698 61.9906 102.202 61.9906 102.202L37.3592 96.4143V96.4053Z" fill="#00D282"/>
<path d="M93.0156 96.4053L94.9185 102.292C94.9185 102.292 101.561 101.398 103.464 109.145C105.367 116.892 98.6977 122.698 83.4475 122.698C68.1974 122.698 68.3841 102.202 68.3841 102.202L93.0156 96.4143V96.4053Z" fill="#00D282"/>
<path d="M65.183 77.0381C62.8265 77.0381 60.4612 76.1261 58.665 74.3022C57.9714 73.5979 57.9714 72.4512 58.665 71.747C59.3586 71.0427 60.4879 71.0427 61.1815 71.747C63.3867 73.9862 66.9792 73.9862 69.1844 71.747C69.878 71.0427 71.0074 71.0427 71.7009 71.747C72.3945 72.4512 72.3945 73.5979 71.7009 74.3022C69.9047 76.1261 67.5483 77.0381 65.183 77.0381Z" fill="#262626"/>
<path d="M54.9658 69.4084C56.9302 69.4084 58.5227 67.7914 58.5227 65.7967C58.5227 63.8021 56.9302 62.1851 54.9658 62.1851C53.0014 62.1851 51.4089 63.8021 51.4089 65.7967C51.4089 67.7914 53.0014 69.4084 54.9658 69.4084Z" fill="#262626"/>
<path d="M65.1787 69.3346C66.5752 69.3346 67.7074 68.1849 67.7074 66.7666C67.7074 65.3484 66.5752 64.1987 65.1787 64.1987C63.7821 64.1987 62.6499 65.3484 62.6499 66.7666C62.6499 68.1849 63.7821 69.3346 65.1787 69.3346Z" fill="#FFE600"/>
<path d="M75.418 69.4084C77.3824 69.4084 78.9749 67.7914 78.9749 65.7967C78.9749 63.8021 77.3824 62.1851 75.418 62.1851C73.4536 62.1851 71.8611 63.8021 71.8611 65.7967C71.8611 67.7914 73.4536 69.4084 75.418 69.4084Z" fill="#262626"/>
</svg>
