<svg width="131" height="122" viewBox="0 0 131 122" fill="none" xmlns="http://www.w3.org/2000/svg">
<g clip-path="url(#clip0_2139_25282)">
<path d="M101.38 83.652C101.38 83.652 104.999 89.0747 103.19 94.5089C101.38 99.943 111.173 105.984 118.584 101.751C124.929 98.1355 126.384 89.0861 123.108 80.9406C119.832 72.7951 106.809 68.2761 106.809 68.2761L101.38 83.652Z" fill="#FFE600"/>
<path d="M29.6204 83.652C29.6204 83.652 26.0009 89.0747 27.8106 94.5089C29.6204 99.943 19.8272 105.984 12.4164 101.751C6.07086 98.1355 4.61619 89.0861 7.89205 80.9406C11.1679 72.7951 24.1912 68.2761 24.1912 68.2761L29.6204 83.652Z" fill="#FFE600"/>
<path d="M39.5053 93.2732L37.7299 103.261C37.7299 103.261 31.5333 102.437 29.7464 109.553C27.9711 116.669 34.2021 122 48.4394 122C62.6768 122 62.5165 103.169 62.5165 103.169L39.5053 93.2732Z" fill="#FFE600"/>
<path d="M91.4956 93.2732L93.271 103.261C93.271 103.261 99.4677 102.437 101.255 109.553C103.041 116.669 96.7989 122 82.5615 122C68.3241 122 68.4845 103.169 68.4845 103.169L91.4956 93.2732Z" fill="#FFE600"/>
<path d="M4.81129 32.7652C4.81129 32.7652 24.2832 6.45234 58.6453 35.0532C58.6453 35.0532 75.8264 -9.56417 112.479 1.8762C149.132 13.3166 123.498 67.0863 103.099 85.3908C82.6988 103.695 57.8206 113.866 37.043 97.346C16.2653 80.8147 -11.2244 60.222 4.81129 32.7652Z" fill="#FFE600"/>
<path d="M65.6611 72.15C67.2133 72.15 68.4716 70.8741 68.4716 69.3002C68.4716 67.7263 67.2133 66.4504 65.6611 66.4504C64.1089 66.4504 62.8506 67.7263 62.8506 69.3002C62.8506 70.8741 64.1089 72.15 65.6611 72.15Z" fill="#00D282"/>
<path d="M65.5064 80.8147C62.7689 80.8147 60.1917 79.7507 58.256 77.8173C57.3626 76.9249 57.3626 75.472 58.256 74.5797C59.1494 73.6873 60.6041 73.6873 61.4975 74.5797C62.5627 75.6436 63.9945 76.2385 65.5064 76.2385C67.0183 76.2385 68.4387 75.6551 69.5153 74.5797C70.4087 73.6873 71.8634 73.6873 72.7568 74.5797C73.6502 75.472 73.6502 76.9249 72.7568 77.8173C70.8211 79.7507 68.2439 80.8147 65.5064 80.8147Z" fill="#262626"/>
<path d="M54.5674 72.3945C56.6676 72.3945 58.3701 70.694 58.3701 68.5963C58.3701 66.4986 56.6676 64.7981 54.5674 64.7981C52.4672 64.7981 50.7646 66.4986 50.7646 68.5963C50.7646 70.694 52.4672 72.3945 54.5674 72.3945Z" fill="#262626"/>
<path d="M76.4443 72.3945C78.5445 72.3945 80.2471 70.694 80.2471 68.5963C80.2471 66.4986 78.5445 64.7981 76.4443 64.7981C74.3441 64.7981 72.6416 66.4986 72.6416 68.5963C72.6416 70.694 74.3441 72.3945 76.4443 72.3945Z" fill="#262626"/>
</g>
<defs>
<clipPath id="clip0_2139_25282">
<rect width="131" height="122" fill="white"/>
</clipPath>
</defs>
</svg>
