<svg width="20" height="20" viewBox="0 0 20 20" fill="none" xmlns="http://www.w3.org/2000/svg">
<g clip-path="url(#clip0_9805_7475)">
<path d="M16.8203 1.42773C16.8203 1.42773 17.5626 1.66543 17.9385 2.11188C18.3144 2.55831 18.4223 3.3301 18.4223 3.3301" stroke="#C4C4C4" stroke-width="1.5" stroke-linecap="round" stroke-linejoin="round"/>
<path d="M3.13979 1.39505C3.13979 1.39505 2.40828 1.6639 2.05153 2.12584C1.69477 2.58776 1.6196 3.36343 1.6196 3.36343" stroke="#C4C4C4" stroke-width="1.5" stroke-linecap="round" stroke-linejoin="round"/>
<path d="M12.867 16.1923C12.7663 16.8893 12.4178 17.5266 11.8855 17.9876C11.3531 18.4486 10.6724 18.7023 9.9682 18.7023C9.26397 18.7023 8.58332 18.4486 8.05094 17.9876C7.51856 17.5266 7.1701 16.8893 7.06938 16.1923H12.867ZM9.9682 0.299805C11.817 0.299632 13.5931 1.01968 14.9198 2.30721C16.2465 3.59474 17.0195 5.34848 17.0747 7.19642V7.40969H17.0781V10.8488L18.2607 13.8965C18.2925 13.979 18.3139 14.0643 18.3251 14.1524L18.3335 14.2837C18.3336 14.5489 18.2353 14.8047 18.0576 15.0016C17.8799 15.1984 17.6355 15.3223 17.3716 15.3492L17.2629 15.3543H2.67097C2.50606 15.3544 2.34334 15.3164 2.19552 15.2433C2.0477 15.1702 1.91877 15.0639 1.81879 14.9327C1.71881 14.8016 1.65048 14.6491 1.61913 14.4872C1.58778 14.3253 1.59426 14.1583 1.63807 13.9994L1.67319 13.8956L2.85748 10.848V7.41052C2.85726 6.47667 3.04103 5.55192 3.3983 4.68911C3.75557 3.8263 4.27933 3.04233 4.93967 2.382C5.6 1.72166 6.38397 1.1979 7.24678 0.840629C8.10959 0.483359 9.03434 0.299585 9.9682 0.299805Z" fill="#C4C4C4"/>
</g>
<defs>
<clipPath id="clip0_9805_7475">
<rect width="20" height="20" fill="white"/>
</clipPath>
</defs>
</svg>
