<svg width="20" height="20" viewBox="0 0 20 20" fill="none" xmlns="http://www.w3.org/2000/svg">
<path d="M1.5 6.18955C1.5 4.89454 2.54981 3.84473 3.84483 3.84473H16.1552C17.4502 3.84473 18.5 4.89454 18.5 6.18955V16.1551C18.5 17.4501 17.4502 18.4999 16.1552 18.4999H3.84483C2.54981 18.4999 1.5 17.4501 1.5 16.1551V6.18955Z" fill="#C4C4C4"/>
<path d="M5.31055 1.5V5.60345" stroke="#C4C4C4" stroke-width="1.5" stroke-linecap="round" stroke-linejoin="round"/>
<path d="M14.6895 1.5V5.60345" stroke="#C4C4C4" stroke-width="1.5" stroke-linecap="round" stroke-linejoin="round"/>
<path fill-rule="evenodd" clip-rule="evenodd" d="M4.1377 8.53458C4.1377 8.04895 4.53138 7.65527 5.01701 7.65527H14.9825C15.4682 7.65527 15.8618 8.04895 15.8618 8.53458C15.8618 9.02021 15.4682 9.41389 14.9825 9.41389H5.01701C4.53138 9.41389 4.1377 9.02021 4.1377 8.53458Z" fill="#434343"/>
</svg>
