<svg width="20" height="20" viewBox="0 0 20 20" fill="none" xmlns="http://www.w3.org/2000/svg">
<path fill-rule="evenodd" clip-rule="evenodd" d="M1.5 10.1328C1.5 5.4384 5.30558 1.63281 10 1.63281C14.6945 1.63281 18.5 5.4384 18.5 10.1328V14.1172C18.5 14.5573 18.1432 14.9141 17.7031 14.9141C17.263 14.9141 16.9062 14.5573 16.9062 14.1172V10.1328C16.9062 6.3186 13.8143 3.22656 10 3.22656C6.18579 3.22656 3.09375 6.3186 3.09375 10.1328V14.1172C3.09375 14.5573 2.73698 14.9141 2.29688 14.9141C1.85677 14.9141 1.5 14.5573 1.5 14.1172V10.1328Z" fill="#C4C4C4"/>
<path d="M2.29688 13.5328C2.29688 11.9484 3.58126 10.6641 5.16562 10.6641C6.22187 10.6641 7.07812 11.5203 7.07812 12.5766V15.6578C7.07812 16.714 6.22187 17.5703 5.16562 17.5703C3.58126 17.5703 2.29688 16.286 2.29688 14.7016V13.5328Z" fill="#C4C4C4"/>
<path fill-rule="evenodd" clip-rule="evenodd" d="M5.16562 11.4609C4.02135 11.4609 3.09375 12.3885 3.09375 13.5328V14.7016C3.09375 15.8459 4.02135 16.7734 5.16562 16.7734C5.78176 16.7734 6.28125 16.2739 6.28125 15.6578V12.5766C6.28125 11.9604 5.78176 11.4609 5.16562 11.4609ZM1.5 13.5328C1.5 11.5083 3.14116 9.86719 5.16562 9.86719C6.66197 9.86719 7.875 11.0802 7.875 12.5766V15.6578C7.875 17.1541 6.66197 18.3672 5.16562 18.3672C3.14116 18.3672 1.5 16.7261 1.5 14.7016V13.5328Z" fill="#C4C4C4"/>
<path d="M12.9219 12.5766C12.9219 11.5203 13.7781 10.6641 14.8344 10.6641C16.4188 10.6641 17.7031 11.9484 17.7031 13.5328V14.7016C17.7031 16.286 16.4188 17.5703 14.8344 17.5703C13.7781 17.5703 12.9219 16.714 12.9219 15.6578V12.5766Z" fill="#C4C4C4"/>
<path fill-rule="evenodd" clip-rule="evenodd" d="M14.8344 11.4609C14.2182 11.4609 13.7188 11.9604 13.7188 12.5766V15.6578C13.7188 16.2739 14.2182 16.7734 14.8344 16.7734C15.9787 16.7734 16.9062 15.8459 16.9062 14.7016V13.5328C16.9062 12.3885 15.9787 11.4609 14.8344 11.4609ZM12.125 12.5766C12.125 11.0802 13.338 9.86719 14.8344 9.86719C16.8589 9.86719 18.5 11.5083 18.5 13.5328V14.7016C18.5 16.7261 16.8589 18.3672 14.8344 18.3672C13.338 18.3672 12.125 17.1541 12.125 15.6578V12.5766Z" fill="#C4C4C4"/>
</svg>
