<svg width="27" height="26" viewBox="0 0 27 26" fill="none" xmlns="http://www.w3.org/2000/svg">
<path d="M4.44141 20.5834V10.8334C4.44141 10.4904 4.51832 10.1654 4.67216 9.85842C4.82599 9.55147 5.03796 9.29869 5.30807 9.10008L11.8081 4.22508C12.1872 3.93619 12.6206 3.79175 13.1081 3.79175C13.5956 3.79175 14.0289 3.93619 14.4081 4.22508L20.9081 9.10008C21.1789 9.29869 21.3912 9.55147 21.5451 9.85842C21.6989 10.1654 21.7755 10.4904 21.7747 10.8334V20.5834C21.7747 21.1792 21.5624 21.6895 21.1377 22.1142C20.7131 22.5388 20.2032 22.7508 19.6081 22.7501H16.3581C16.0511 22.7501 15.794 22.6461 15.5867 22.4381C15.3795 22.2301 15.2755 21.973 15.2747 21.6667V16.2501C15.2747 15.9431 15.1707 15.686 14.9627 15.4787C14.7547 15.2715 14.4976 15.1675 14.1914 15.1667H12.0247C11.7178 15.1667 11.4607 15.2707 11.2534 15.4787C11.0461 15.6867 10.9421 15.9439 10.9414 16.2501V21.6667C10.9414 21.9737 10.8374 22.2312 10.6294 22.4392C10.4214 22.6472 10.1643 22.7508 9.85807 22.7501H6.60807C6.01224 22.7501 5.50235 22.5381 5.07841 22.1142C4.65446 21.6902 4.44213 21.18 4.44141 20.5834Z" fill="#F5F5F5"/>
</svg>
