<svg width="27" height="26" viewBox="0 0 27 26" fill="none" xmlns="http://www.w3.org/2000/svg">
<path d="M13.1094 12.1377C15.353 12.1377 17.1719 10.3189 17.1719 8.0752C17.1719 5.83154 15.353 4.0127 13.1094 4.0127C10.8657 4.0127 9.04688 5.83154 9.04688 8.0752C9.04688 10.3189 10.8657 12.1377 13.1094 12.1377Z" fill="#F5F5F5"/>
<path fill-rule="evenodd" clip-rule="evenodd" d="M13.1094 4.9502C11.3835 4.9502 9.98438 6.34931 9.98438 8.0752C9.98438 9.80109 11.3835 11.2002 13.1094 11.2002C14.8353 11.2002 16.2344 9.80109 16.2344 8.0752C16.2344 6.34931 14.8353 4.9502 13.1094 4.9502ZM8.10938 8.0752C8.10938 5.31377 10.348 3.0752 13.1094 3.0752C15.8708 3.0752 18.1094 5.31377 18.1094 8.0752C18.1094 10.8366 15.8708 13.0752 13.1094 13.0752C10.348 13.0752 8.10938 10.8366 8.10938 8.0752Z" fill="#F5F5F5"/>
<path d="M6.66841 22.1379H19.5497C20.977 22.1379 22.0765 20.9106 21.41 19.6484C20.4294 17.7918 18.194 15.5754 13.109 15.5754C8.02405 15.5754 5.78862 17.7918 4.80808 19.6484C4.1415 20.9106 5.24101 22.1379 6.66841 22.1379Z" fill="#F5F5F5"/>
<path fill-rule="evenodd" clip-rule="evenodd" d="M6.93906 16.1107C8.4252 15.2236 10.4276 14.6379 13.1092 14.6379C15.7908 14.6379 17.7932 15.2236 19.2794 16.1107C20.7663 16.9983 21.6816 18.1549 22.2392 19.2106L22.2392 19.2107C22.7564 20.19 22.587 21.2116 21.9986 21.9505C21.4351 22.6582 20.5229 23.0754 19.5498 23.0754H6.66859C5.69552 23.0754 4.78334 22.6582 4.21981 21.9505C3.63139 21.2116 3.46207 20.1899 3.97928 19.2106L4.80827 19.6484L3.97928 19.2106C4.53685 18.1549 5.45218 16.9983 6.93906 16.1107ZM7.90009 17.7207C6.75287 18.4055 6.06024 19.2854 5.63726 20.0863L5.63725 20.0863C5.48788 20.3691 5.53502 20.5922 5.68656 20.7825C5.86299 21.004 6.21427 21.2004 6.66859 21.2004H19.5498C20.0041 21.2004 20.3554 21.004 20.5319 20.7825C20.6834 20.5922 20.7306 20.3691 20.5812 20.0863C20.1582 19.2854 19.4656 18.4055 18.3183 17.7207C17.1704 17.0355 15.5126 16.5129 13.1092 16.5129C10.7058 16.5129 9.04804 17.0355 7.90009 17.7207Z" fill="#F5F5F5"/>
</svg>
