<svg width="27" height="27" viewBox="0 0 27 27" fill="none" xmlns="http://www.w3.org/2000/svg">
<path d="M13.7817 23.6748C19.1665 23.6748 23.5317 19.3096 23.5317 13.9248C23.5317 8.54003 19.1665 4.1748 13.7817 4.1748C8.39696 4.1748 4.03174 8.54003 4.03174 13.9248C4.03174 19.3096 8.39696 23.6748 13.7817 23.6748Z" fill="#7B7B7B"/>
<path fill-rule="evenodd" clip-rule="evenodd" d="M13.7816 7.53662C14.3386 7.53662 14.7902 7.9882 14.7902 8.54524V13.5068L17.1844 15.901C17.5783 16.2949 17.5783 16.9335 17.1844 17.3274C16.7905 17.7213 16.1519 17.7213 15.758 17.3274L12.7729 14.3423V8.54524C12.7729 7.9882 13.2245 7.53662 13.7816 7.53662Z" fill="#262626"/>
</svg>
