<svg width="27" height="26" viewBox="0 0 27 26" fill="none" xmlns="http://www.w3.org/2000/svg">
<path d="M13.7663 21.8974C18.9647 21.8974 24.5345 19.2982 24.5345 12.6145C24.5345 5.93077 18.9647 3.33154 13.7663 3.33154C8.56781 3.33154 2.99805 5.93077 2.99805 12.6145C2.99805 14.144 3.28974 15.4597 3.80192 16.5791C4.12118 17.277 4.30026 18.0466 4.15884 18.8008L3.76941 20.8778C3.57692 21.9044 4.47629 22.8039 5.50297 22.6114L10.2668 21.7181C10.6412 21.6479 11.0252 21.654 11.4014 21.7137C12.1844 21.8379 12.9797 21.8974 13.7663 21.8974Z" fill="#F5F5F5"/>
<path fill-rule="evenodd" clip-rule="evenodd" d="M7.82617 12.6144C7.82617 11.7942 8.49111 11.1292 9.31144 11.1292C10.1318 11.1292 10.7967 11.7942 10.7967 12.6144C10.7967 13.4346 10.1318 14.0997 9.31144 14.0997C8.49111 14.0997 7.82617 13.4346 7.82617 12.6144Z" fill="#262626"/>
<path fill-rule="evenodd" clip-rule="evenodd" d="M12.2812 12.6144C12.2812 11.7942 12.9463 11.1292 13.7665 11.1292C14.5867 11.1292 15.2518 11.7942 15.2518 12.6144C15.2518 13.4346 14.5867 14.0997 13.7665 14.0997C12.9463 14.0997 12.2812 13.4346 12.2812 12.6144Z" fill="#262626"/>
<path fill-rule="evenodd" clip-rule="evenodd" d="M16.7383 12.6144C16.7383 11.7942 17.4033 11.1292 18.2236 11.1292C19.0438 11.1292 19.7088 11.7942 19.7088 12.6144C19.7088 13.4346 19.0438 14.0997 18.2236 14.0997C17.4033 14.0997 16.7383 13.4346 16.7383 12.6144Z" fill="#262626"/>
</svg>
