<svg width="27" height="27" viewBox="0 0 27 27" fill="none" xmlns="http://www.w3.org/2000/svg">
<path d="M4.76855 21.508V11.758C4.76855 11.4149 4.84547 11.0899 4.9993 10.783C5.15314 10.476 5.36511 10.2233 5.63522 10.0246L12.1352 5.14964C12.5144 4.86075 12.9477 4.71631 13.4352 4.71631C13.9227 4.71631 14.3561 4.86075 14.7352 5.14964L21.2352 10.0246C21.5061 10.2233 21.7184 10.476 21.8722 10.783C22.0261 11.0899 22.1026 11.4149 22.1019 11.758V21.508C22.1019 22.1038 21.8896 22.6141 21.4649 23.0387C21.0402 23.4634 20.5303 23.6754 19.9352 23.6746H16.6852C16.3783 23.6746 16.1212 23.5706 15.9139 23.3626C15.7066 23.1546 15.6026 22.8975 15.6019 22.5913V17.1746C15.6019 16.8677 15.4979 16.6106 15.2899 16.4033C15.0819 16.196 14.8248 16.092 14.5186 16.0913H12.3519C12.0449 16.0913 11.7878 16.1953 11.5806 16.4033C11.3733 16.6113 11.2693 16.8684 11.2686 17.1746V22.5913C11.2686 22.8983 11.1646 23.1557 10.9566 23.3637C10.7486 23.5717 10.4914 23.6754 10.1852 23.6746H6.93522C6.33939 23.6746 5.8295 23.4627 5.40555 23.0387C4.98161 22.6148 4.76928 22.1045 4.76855 21.508Z" fill="#7B7B7B"/>
</svg>
