<svg width="27" height="27" viewBox="0 0 27 27" fill="none" xmlns="http://www.w3.org/2000/svg">
<path d="M9.65609 6.75879H7.93195C6.40841 6.75879 5.17334 7.99386 5.17334 9.5174V21.2415C5.17334 22.7651 6.40841 24.0001 7.93195 24.0001H19.6561C21.1796 24.0001 22.4147 22.7651 22.4147 21.2415V9.5174C22.4147 7.99386 21.1796 6.75879 19.6561 6.75879H17.9319" fill="#7B7B7B"/>
<path d="M16.5528 8.82757H11.0356C10.2738 8.82757 9.65625 8.21003 9.65625 7.44827V5.37931C9.65625 4.61754 10.2738 4 11.0356 4H16.5528C17.3146 4 17.9321 4.61754 17.9321 5.37931V7.44827C17.9321 8.21003 17.3146 8.82757 16.5528 8.82757Z" fill="#7B7B7B"/>
<path fill-rule="evenodd" clip-rule="evenodd" d="M9.65625 14.345C9.65625 13.7737 10.1194 13.3105 10.6907 13.3105H16.8976C17.4689 13.3105 17.9321 13.7737 17.9321 14.345C17.9321 14.9164 17.4689 15.3795 16.8976 15.3795H10.6907C10.1194 15.3795 9.65625 14.9164 9.65625 14.345Z" fill="#262626"/>
<path fill-rule="evenodd" clip-rule="evenodd" d="M9.65625 18.4827C9.65625 17.9114 10.1194 17.4482 10.6907 17.4482H16.8976C17.4689 17.4482 17.9321 17.9114 17.9321 18.4827C17.9321 19.054 17.4689 19.5172 16.8976 19.5172H10.6907C10.1194 19.5172 9.65625 19.054 9.65625 18.4827Z" fill="#262626"/>
</svg>
