<svg width="27" height="26" viewBox="0 0 27 26" fill="none" xmlns="http://www.w3.org/2000/svg">
<path d="M9.96321 5.83398H8.23908C6.71554 5.83398 5.48047 7.06906 5.48047 8.5926V20.3167C5.48047 21.8403 6.71554 23.0753 8.23908 23.0753H19.9632C21.4868 23.0753 22.7218 21.8403 22.7218 20.3167V8.5926C22.7218 7.06906 21.4868 5.83398 19.9632 5.83398H18.2391" fill="#F5F5F5"/>
<path d="M16.8594 7.90277H11.3422C10.5804 7.90277 9.96289 7.28522 9.96289 6.52346V4.4545C9.96289 3.69274 10.5804 3.0752 11.3422 3.0752H16.8594C17.6212 3.0752 18.2387 3.69274 18.2387 4.4545V6.52346C18.2387 7.28522 17.6212 7.90277 16.8594 7.90277Z" fill="#F5F5F5"/>
<path fill-rule="evenodd" clip-rule="evenodd" d="M9.96289 13.42C9.96289 12.8487 10.426 12.3855 10.9974 12.3855H17.2042C17.7756 12.3855 18.2387 12.8487 18.2387 13.42C18.2387 13.9913 17.7756 14.4545 17.2042 14.4545H10.9974C10.426 14.4545 9.96289 13.9913 9.96289 13.42Z" fill="#262626"/>
<path fill-rule="evenodd" clip-rule="evenodd" d="M9.96289 17.5579C9.96289 16.9866 10.426 16.5234 10.9974 16.5234H17.2042C17.7756 16.5234 18.2387 16.9866 18.2387 17.5579C18.2387 18.1292 17.7756 18.5924 17.2042 18.5924H10.9974C10.426 18.5924 9.96289 18.1292 9.96289 17.5579Z" fill="#262626"/>
</svg>
