<svg width="27" height="27" viewBox="0 0 27 27" fill="none" xmlns="http://www.w3.org/2000/svg">
<path d="M13.8223 13.0625C16.0659 13.0625 17.8848 11.2437 17.8848 9C17.8848 6.75634 16.0659 4.9375 13.8223 4.9375C11.5786 4.9375 9.75977 6.75634 9.75977 9C9.75977 11.2437 11.5786 13.0625 13.8223 13.0625Z" fill="#7B7B7B"/>
<path fill-rule="evenodd" clip-rule="evenodd" d="M13.8218 5.875C12.0959 5.875 10.6968 7.27411 10.6968 9C10.6968 10.7259 12.0959 12.125 13.8218 12.125C15.5477 12.125 16.9468 10.7259 16.9468 9C16.9468 7.27411 15.5477 5.875 13.8218 5.875ZM8.82178 9C8.82178 6.23858 11.0604 4 13.8218 4C16.5832 4 18.8218 6.23858 18.8218 9C18.8218 11.7614 16.5832 14 13.8218 14C11.0604 14 8.82178 11.7614 8.82178 9Z" fill="#7B7B7B"/>
<path d="M7.3813 23.063H20.2625C21.6899 23.063 22.7894 21.8356 22.1229 20.5735C21.1423 18.7169 18.9069 16.5005 13.8219 16.5005C8.73694 16.5005 6.50151 18.7169 5.52097 20.5735C4.85439 21.8356 5.9539 23.063 7.3813 23.063Z" fill="#7B7B7B"/>
<path fill-rule="evenodd" clip-rule="evenodd" d="M7.65195 17.0353C9.13809 16.1482 11.1405 15.5625 13.8221 15.5625C16.5037 15.5625 18.5061 16.1482 19.9923 17.0353C21.4791 17.9228 22.3945 19.0795 22.9521 20.1352L22.9521 20.1352C23.4693 21.1145 23.2999 22.1362 22.7115 22.8751C22.148 23.5827 21.2358 24 20.2627 24H7.38148C6.40841 24 5.49623 23.5827 4.9327 22.8751C4.34428 22.1361 4.17496 21.1145 4.69217 20.1352L5.52116 20.573L4.69217 20.1352C5.24974 19.0794 6.16507 17.9228 7.65195 17.0353ZM8.61298 18.6453C7.46577 19.3301 6.77313 20.2099 6.35015 21.0108L6.35014 21.0108C6.20077 21.2937 6.24791 21.5167 6.39945 21.707C6.57588 21.9286 6.92716 22.125 7.38148 22.125H20.2627C20.717 22.125 21.0683 21.9286 21.2448 21.707C21.3963 21.5167 21.4434 21.2936 21.2941 21.0108C20.8711 20.2099 20.1785 19.3301 19.0312 18.6453C17.8833 17.96 16.2255 17.4375 13.8221 17.4375C11.4187 17.4375 9.76093 17.96 8.61298 18.6453Z" fill="#7B7B7B"/>
</svg>
