<svg width="27" height="26" viewBox="0 0 27 26" fill="none" xmlns="http://www.w3.org/2000/svg">
<path d="M3.47949 17.6958C3.47949 18.5502 3.8189 19.3696 4.42304 19.9737C5.02719 20.5779 5.84659 20.9173 6.70098 20.9173H11.5729L11.9257 19.5068C12.0863 18.8644 12.4184 18.2776 12.8872 17.8098L18.7374 11.9586C19.0732 11.6223 19.4786 11.3637 19.925 11.201C20.3715 11.0383 20.8482 10.9755 21.3216 11.0169V6.29668C21.3216 5.44229 20.9822 4.62289 20.378 4.01875C19.7739 3.4146 18.9545 3.0752 18.1001 3.0752H11.4093V7.78352C11.4093 8.20658 11.326 8.62548 11.1641 9.01633C11.0022 9.40718 10.7649 9.76232 10.4658 10.0615C10.1666 10.3606 9.81148 10.5979 9.42063 10.7598C9.02978 10.9217 8.61087 11.005 8.18782 11.005H3.47949V17.6958ZM9.92247 3.51134L3.91563 9.51817H8.18782C8.64788 9.51817 9.08909 9.33541 9.4144 9.0101C9.73971 8.6848 9.92247 8.24358 9.92247 7.78352V3.51134ZM19.4382 12.6604L13.587 18.5106C13.2467 18.852 13.0049 19.2791 12.8872 19.7466L12.4332 21.5616C12.3881 21.7422 12.3905 21.9313 12.4402 22.1107C12.4899 22.2901 12.5853 22.4535 12.7169 22.5851C12.8486 22.7167 13.0121 22.8119 13.1915 22.8615C13.3709 22.911 13.5601 22.9133 13.7407 22.868L15.5546 22.415C16.0226 22.2972 16.45 22.0551 16.7917 21.7142L22.6419 15.864C23.0504 15.4359 23.2752 14.8649 23.2682 14.2732C23.2613 13.6815 23.0231 13.116 22.6047 12.6976C22.1863 12.2791 21.6208 12.041 21.029 12.034C20.4373 12.0271 19.8664 12.2519 19.4382 12.6604Z" fill="#F5F5F5"/>
</svg>
