<svg width="27" height="26" viewBox="0 0 27 26" fill="none" xmlns="http://www.w3.org/2000/svg">
<path d="M13.7822 22.75C19.167 22.75 23.5322 18.3848 23.5322 13C23.5322 7.61522 19.167 3.25 13.7822 3.25C8.39745 3.25 4.03223 7.61522 4.03223 13C4.03223 18.3848 8.39745 22.75 13.7822 22.75Z" fill="#F5F5F5"/>
<path fill-rule="evenodd" clip-rule="evenodd" d="M13.7821 6.61206C14.3391 6.61206 14.7907 7.06364 14.7907 7.62068V12.5822L17.1849 14.9764C17.5788 15.3703 17.5788 16.009 17.1849 16.4028C16.791 16.7967 16.1524 16.7967 15.7585 16.4028L12.7734 13.4178V7.62068C12.7734 7.06364 13.225 6.61206 13.7821 6.61206Z" fill="#262626"/>
</svg>
