<svg width="22" height="22" viewBox="0 0 22 22" fill="none" xmlns="http://www.w3.org/2000/svg">
<path d="M13.8896 17.6662C13.7893 18.3606 13.4421 18.9956 12.9117 19.4548C12.3813 19.9141 11.7033 20.1668 11.0017 20.1668C10.3001 20.1668 9.62201 19.9141 9.09163 19.4548C8.56125 18.9956 8.21409 18.3606 8.11376 17.6662H13.8896ZM11.0017 1.8335C12.8435 1.83332 14.6129 2.55066 15.9347 3.83335C17.2564 5.11605 18.0265 6.86319 18.0815 8.70418V8.91665H18.0848V12.3428L19.263 15.3791C19.2947 15.4613 19.316 15.5463 19.3271 15.634L19.3355 15.7648C19.3356 16.029 19.2377 16.2839 19.0606 16.48C18.8836 16.6761 18.6401 16.7995 18.3773 16.8263L18.269 16.8313H3.73188C3.56759 16.8315 3.40549 16.7936 3.25822 16.7208C3.11096 16.648 2.98251 16.5421 2.88291 16.4114C2.7833 16.2808 2.71523 16.1289 2.684 15.9676C2.65277 15.8063 2.65922 15.6399 2.70286 15.4815L2.73786 15.3782L3.91769 12.342V8.91748C3.91747 7.98714 4.10055 7.06587 4.45648 6.2063C4.81241 5.34673 5.3342 4.56571 5.99205 3.90786C6.64991 3.25001 7.43092 2.72821 8.29049 2.37229C9.15006 2.01636 10.0713 1.83328 11.0017 1.8335Z" fill="#F5F5F5"/>
<circle cx="18.5" cy="1.5" r="1.5" fill="#FF5449"/>
</svg>
