<svg width="22" height="22" viewBox="0 0 22 22" fill="none" xmlns="http://www.w3.org/2000/svg">
<g clip-path="url(#clip0_1440_18050)">
<path d="M2.77341 14.8208L4.19306 15.0431C5.24105 15.2072 5.98948 16.167 5.91229 17.2484L5.8077 18.7141C5.77724 19.1411 6.00471 19.5431 6.38145 19.7291L7.43146 20.2464C7.80821 20.4323 8.25808 20.3627 8.56581 20.0729L9.62087 19.0757C10.3988 18.3402 11.5991 18.3402 12.3779 19.0757L13.433 20.0729C13.7407 20.3638 14.1896 20.4323 14.5673 20.2464L15.6193 19.728C15.9951 19.5431 16.2216 19.1421 16.1912 18.7163L16.0864 17.2484C16.0093 16.167 16.7577 15.2072 17.8057 15.0431L19.2253 14.8208C19.6387 14.7564 19.9718 14.4395 20.0651 14.022L20.3241 12.8606C20.4176 12.443 20.252 12.0098 19.9068 11.7688L18.7217 10.9388C17.8473 10.3259 17.5802 9.12926 18.1084 8.18912L18.8242 6.91556C19.0324 6.5447 18.998 6.08036 18.7369 5.74588L18.0109 4.81407C17.7498 4.47958 17.3152 4.34143 16.9152 4.46712L15.5422 4.89718C14.5278 5.21504 13.4462 4.68214 13.0563 3.67348L12.5302 2.30954C12.3758 1.91065 11.9991 1.64887 11.5797 1.64991L10.4159 1.65303C9.99655 1.65406 9.62087 1.91792 9.46857 2.31786L8.95567 3.6662C8.5698 4.68111 7.48326 5.21816 6.46573 4.89821L5.03593 4.44946C4.63481 4.32273 4.19814 4.46192 3.93717 4.7985L3.21616 5.73133C2.95519 6.06894 2.92371 6.53432 3.13594 6.90516L3.86811 8.18184C4.40734 9.12294 4.14331 10.3311 3.26389 10.9472L2.09303 11.7678C1.74776 12.0098 1.58224 12.443 1.67567 12.8596L1.93462 14.0209C2.02702 14.4395 2.3601 14.7564 2.77341 14.8208Z" stroke="#F5F5F5" stroke-width="1.6" stroke-linecap="round" stroke-linejoin="round"/>
<path d="M13.0516 8.9479C14.1846 10.081 14.1846 11.9188 13.0516 13.0518C11.9185 14.1848 10.0808 14.1848 8.94766 13.0518C7.81465 11.9188 7.81465 10.081 8.94766 8.9479C10.0808 7.81489 11.9185 7.81489 13.0516 8.9479Z" stroke="#F5F5F5" stroke-width="1.6" stroke-linecap="round" stroke-linejoin="round"/>
</g>
<defs>
<clipPath id="clip0_1440_18050">
<rect width="22" height="22" fill="white"/>
</clipPath>
</defs>
</svg>
